<mxfile host="app.diagrams.net" modified="2024-05-05T07:36:52.288Z" agent="Mozilla/5.0 (Windows NT 10.0; Win64; x64) AppleWebKit/537.36 (KHTML, like Gecko) Chrome/124.0.0.0 Safari/537.36" etag="hdgwmWoA_GBAwcKbfpZq" version="24.3.1" type="github">
  <diagram name="Page-1" id="E5z7_evESgjMb_As2ucQ">
    <mxGraphModel dx="880" dy="434" grid="1" gridSize="10" guides="1" tooltips="1" connect="1" arrows="1" fold="1" page="1" pageScale="1" pageWidth="827" pageHeight="1169" math="0" shadow="0">
      <root>
        <mxCell id="0" />
        <mxCell id="1" parent="0" />
        <mxCell id="dNbxliVc7xj6Qj0FZMgo-4" value="" style="edgeStyle=orthogonalEdgeStyle;rounded=0;orthogonalLoop=1;jettySize=auto;html=1;" edge="1" parent="1" source="dNbxliVc7xj6Qj0FZMgo-1" target="dNbxliVc7xj6Qj0FZMgo-3">
          <mxGeometry relative="1" as="geometry" />
        </mxCell>
        <mxCell id="dNbxliVc7xj6Qj0FZMgo-11" style="edgeStyle=none;rounded=0;orthogonalLoop=1;jettySize=auto;html=1;entryX=0.25;entryY=0;entryDx=0;entryDy=0;exitX=0.75;exitY=1;exitDx=0;exitDy=0;" edge="1" parent="1" source="dNbxliVc7xj6Qj0FZMgo-1" target="dNbxliVc7xj6Qj0FZMgo-7">
          <mxGeometry relative="1" as="geometry" />
        </mxCell>
        <mxCell id="dNbxliVc7xj6Qj0FZMgo-1" value="Google Sheet" style="rounded=0;whiteSpace=wrap;html=1;fillColor=#f8cecc;strokeColor=#b85450;" vertex="1" parent="1">
          <mxGeometry x="180" y="40" width="120" height="60" as="geometry" />
        </mxCell>
        <mxCell id="dNbxliVc7xj6Qj0FZMgo-6" style="edgeStyle=orthogonalEdgeStyle;rounded=0;orthogonalLoop=1;jettySize=auto;html=1;entryX=1;entryY=0.75;entryDx=0;entryDy=0;" edge="1" parent="1" source="dNbxliVc7xj6Qj0FZMgo-3" target="dNbxliVc7xj6Qj0FZMgo-1">
          <mxGeometry relative="1" as="geometry">
            <Array as="points">
              <mxPoint x="540" y="85" />
              <mxPoint x="540" y="85" />
            </Array>
          </mxGeometry>
        </mxCell>
        <mxCell id="dNbxliVc7xj6Qj0FZMgo-3" value="Metabase" style="whiteSpace=wrap;html=1;rounded=0;fillColor=#0050ef;strokeColor=#001DBC;fontColor=#ffffff;" vertex="1" parent="1">
          <mxGeometry x="620" y="40" width="120" height="60" as="geometry" />
        </mxCell>
        <mxCell id="dNbxliVc7xj6Qj0FZMgo-8" style="rounded=0;orthogonalLoop=1;jettySize=auto;html=1;entryX=0.5;entryY=1;entryDx=0;entryDy=0;" edge="1" parent="1" source="dNbxliVc7xj6Qj0FZMgo-7" target="dNbxliVc7xj6Qj0FZMgo-1">
          <mxGeometry relative="1" as="geometry" />
        </mxCell>
        <mxCell id="dNbxliVc7xj6Qj0FZMgo-7" value="Google Docs" style="rounded=0;whiteSpace=wrap;html=1;fillColor=#f8cecc;strokeColor=#b85450;" vertex="1" parent="1">
          <mxGeometry x="620" y="290" width="120" height="60" as="geometry" />
        </mxCell>
        <mxCell id="dNbxliVc7xj6Qj0FZMgo-12" value="Aplikasi buatan Evermos" style="rounded=0;whiteSpace=wrap;html=1;fillColor=#008a00;strokeColor=#005700;fontColor=#ffffff;" vertex="1" parent="1">
          <mxGeometry x="140" y="340" width="120" height="60" as="geometry" />
        </mxCell>
        <mxCell id="dNbxliVc7xj6Qj0FZMgo-13" style="edgeStyle=none;rounded=0;orthogonalLoop=1;jettySize=auto;html=1;entryX=0.15;entryY=1.072;entryDx=0;entryDy=0;entryPerimeter=0;" edge="1" parent="1" source="dNbxliVc7xj6Qj0FZMgo-12" target="dNbxliVc7xj6Qj0FZMgo-1">
          <mxGeometry relative="1" as="geometry" />
        </mxCell>
        <mxCell id="dNbxliVc7xj6Qj0FZMgo-14" style="edgeStyle=none;rounded=0;orthogonalLoop=1;jettySize=auto;html=1;entryX=0.632;entryY=0.033;entryDx=0;entryDy=0;entryPerimeter=0;exitX=0.285;exitY=1.019;exitDx=0;exitDy=0;exitPerimeter=0;" edge="1" parent="1" source="dNbxliVc7xj6Qj0FZMgo-1" target="dNbxliVc7xj6Qj0FZMgo-12">
          <mxGeometry relative="1" as="geometry" />
        </mxCell>
        <mxCell id="dNbxliVc7xj6Qj0FZMgo-17" value="" style="edgeStyle=none;rounded=0;orthogonalLoop=1;jettySize=auto;html=1;" edge="1" parent="1" source="dNbxliVc7xj6Qj0FZMgo-15" target="dNbxliVc7xj6Qj0FZMgo-16">
          <mxGeometry relative="1" as="geometry" />
        </mxCell>
        <mxCell id="dNbxliVc7xj6Qj0FZMgo-21" style="edgeStyle=none;rounded=0;orthogonalLoop=1;jettySize=auto;html=1;entryX=0;entryY=0;entryDx=0;entryDy=0;" edge="1" parent="1" source="dNbxliVc7xj6Qj0FZMgo-15" target="dNbxliVc7xj6Qj0FZMgo-18">
          <mxGeometry relative="1" as="geometry" />
        </mxCell>
        <mxCell id="dNbxliVc7xj6Qj0FZMgo-27" value="" style="edgeStyle=none;rounded=0;orthogonalLoop=1;jettySize=auto;html=1;" edge="1" parent="1" source="dNbxliVc7xj6Qj0FZMgo-15" target="dNbxliVc7xj6Qj0FZMgo-26">
          <mxGeometry relative="1" as="geometry" />
        </mxCell>
        <mxCell id="dNbxliVc7xj6Qj0FZMgo-34" style="edgeStyle=none;rounded=0;orthogonalLoop=1;jettySize=auto;html=1;entryX=0.25;entryY=1;entryDx=0;entryDy=0;exitX=0.25;exitY=0;exitDx=0;exitDy=0;" edge="1" parent="1" source="dNbxliVc7xj6Qj0FZMgo-15" target="dNbxliVc7xj6Qj0FZMgo-29">
          <mxGeometry relative="1" as="geometry" />
        </mxCell>
        <mxCell id="dNbxliVc7xj6Qj0FZMgo-15" value="Google Docs" style="rounded=0;whiteSpace=wrap;html=1;fillColor=#f8cecc;strokeColor=#b85450;" vertex="1" parent="1">
          <mxGeometry x="150" y="680" width="120" height="60" as="geometry" />
        </mxCell>
        <mxCell id="dNbxliVc7xj6Qj0FZMgo-16" value="Google Chat" style="whiteSpace=wrap;html=1;fillColor=#f8cecc;strokeColor=#b85450;rounded=0;" vertex="1" parent="1">
          <mxGeometry x="610" y="680" width="120" height="60" as="geometry" />
        </mxCell>
        <mxCell id="dNbxliVc7xj6Qj0FZMgo-22" style="edgeStyle=none;rounded=0;orthogonalLoop=1;jettySize=auto;html=1;entryX=0.75;entryY=1;entryDx=0;entryDy=0;exitX=0;exitY=0.25;exitDx=0;exitDy=0;" edge="1" parent="1" source="dNbxliVc7xj6Qj0FZMgo-18" target="dNbxliVc7xj6Qj0FZMgo-15">
          <mxGeometry relative="1" as="geometry" />
        </mxCell>
        <mxCell id="dNbxliVc7xj6Qj0FZMgo-18" value="Metabase" style="whiteSpace=wrap;html=1;fillColor=#0050ef;strokeColor=#001DBC;rounded=0;fontColor=#ffffff;" vertex="1" parent="1">
          <mxGeometry x="610" y="900" width="120" height="60" as="geometry" />
        </mxCell>
        <mxCell id="dNbxliVc7xj6Qj0FZMgo-20" style="edgeStyle=none;rounded=0;orthogonalLoop=1;jettySize=auto;html=1;entryX=1;entryY=0.75;entryDx=0;entryDy=0;exitX=0;exitY=0.75;exitDx=0;exitDy=0;" edge="1" parent="1" source="dNbxliVc7xj6Qj0FZMgo-16" target="dNbxliVc7xj6Qj0FZMgo-15">
          <mxGeometry relative="1" as="geometry" />
        </mxCell>
        <mxCell id="dNbxliVc7xj6Qj0FZMgo-26" value="Apliaksi buatan Evermos" style="rounded=0;whiteSpace=wrap;html=1;fillColor=#008a00;strokeColor=#005700;fontColor=#ffffff;" vertex="1" parent="1">
          <mxGeometry x="150" y="1000" width="120" height="60" as="geometry" />
        </mxCell>
        <mxCell id="dNbxliVc7xj6Qj0FZMgo-29" value="Figma" style="rounded=0;whiteSpace=wrap;html=1;fillColor=#fa6800;strokeColor=#C73500;fontColor=#000000;" vertex="1" parent="1">
          <mxGeometry x="150" y="460" width="120" height="60" as="geometry" />
        </mxCell>
        <mxCell id="dNbxliVc7xj6Qj0FZMgo-37" value="" style="edgeStyle=none;rounded=0;orthogonalLoop=1;jettySize=auto;html=1;" edge="1" parent="1" source="dNbxliVc7xj6Qj0FZMgo-35" target="dNbxliVc7xj6Qj0FZMgo-36">
          <mxGeometry relative="1" as="geometry" />
        </mxCell>
        <mxCell id="dNbxliVc7xj6Qj0FZMgo-40" style="edgeStyle=none;rounded=0;orthogonalLoop=1;jettySize=auto;html=1;entryX=0;entryY=0;entryDx=0;entryDy=0;" edge="1" parent="1" source="dNbxliVc7xj6Qj0FZMgo-35" target="dNbxliVc7xj6Qj0FZMgo-38">
          <mxGeometry relative="1" as="geometry" />
        </mxCell>
        <mxCell id="dNbxliVc7xj6Qj0FZMgo-35" value="Google Chat" style="rounded=0;whiteSpace=wrap;html=1;fillColor=#f8cecc;strokeColor=#b85450;" vertex="1" parent="1">
          <mxGeometry x="910" y="50" width="120" height="60" as="geometry" />
        </mxCell>
        <mxCell id="dNbxliVc7xj6Qj0FZMgo-39" style="edgeStyle=none;rounded=0;orthogonalLoop=1;jettySize=auto;html=1;entryX=1;entryY=0.75;entryDx=0;entryDy=0;exitX=0;exitY=0.75;exitDx=0;exitDy=0;" edge="1" parent="1" source="dNbxliVc7xj6Qj0FZMgo-36" target="dNbxliVc7xj6Qj0FZMgo-35">
          <mxGeometry relative="1" as="geometry" />
        </mxCell>
        <mxCell id="dNbxliVc7xj6Qj0FZMgo-36" value="Google Docs" style="whiteSpace=wrap;html=1;fillColor=#f8cecc;strokeColor=#b85450;rounded=0;" vertex="1" parent="1">
          <mxGeometry x="1430" y="50" width="120" height="60" as="geometry" />
        </mxCell>
        <mxCell id="dNbxliVc7xj6Qj0FZMgo-38" value="ProofHub" style="whiteSpace=wrap;html=1;fillColor=#b1ddf0;strokeColor=#10739e;rounded=0;" vertex="1" parent="1">
          <mxGeometry x="1430" y="270" width="120" height="60" as="geometry" />
        </mxCell>
        <mxCell id="dNbxliVc7xj6Qj0FZMgo-44" style="edgeStyle=none;rounded=0;orthogonalLoop=1;jettySize=auto;html=1;entryX=0;entryY=0.5;entryDx=0;entryDy=0;" edge="1" parent="1" source="dNbxliVc7xj6Qj0FZMgo-42" target="dNbxliVc7xj6Qj0FZMgo-43">
          <mxGeometry relative="1" as="geometry" />
        </mxCell>
        <mxCell id="dNbxliVc7xj6Qj0FZMgo-47" style="edgeStyle=none;rounded=0;orthogonalLoop=1;jettySize=auto;html=1;entryX=0;entryY=0;entryDx=0;entryDy=0;" edge="1" parent="1" source="dNbxliVc7xj6Qj0FZMgo-42" target="dNbxliVc7xj6Qj0FZMgo-46">
          <mxGeometry relative="1" as="geometry" />
        </mxCell>
        <mxCell id="dNbxliVc7xj6Qj0FZMgo-50" style="edgeStyle=none;rounded=0;orthogonalLoop=1;jettySize=auto;html=1;entryX=0;entryY=0;entryDx=0;entryDy=0;" edge="1" parent="1" source="dNbxliVc7xj6Qj0FZMgo-42" target="dNbxliVc7xj6Qj0FZMgo-49">
          <mxGeometry relative="1" as="geometry" />
        </mxCell>
        <mxCell id="dNbxliVc7xj6Qj0FZMgo-42" value="Metabase" style="rounded=0;whiteSpace=wrap;html=1;fillColor=#0050ef;strokeColor=#001DBC;fontColor=#ffffff;" vertex="1" parent="1">
          <mxGeometry x="910" y="580" width="120" height="60" as="geometry" />
        </mxCell>
        <mxCell id="dNbxliVc7xj6Qj0FZMgo-45" style="edgeStyle=none;rounded=0;orthogonalLoop=1;jettySize=auto;html=1;entryX=1;entryY=0.75;entryDx=0;entryDy=0;exitX=0;exitY=0.75;exitDx=0;exitDy=0;" edge="1" parent="1" source="dNbxliVc7xj6Qj0FZMgo-43" target="dNbxliVc7xj6Qj0FZMgo-42">
          <mxGeometry relative="1" as="geometry" />
        </mxCell>
        <mxCell id="dNbxliVc7xj6Qj0FZMgo-43" value="Google Sheet" style="rounded=0;whiteSpace=wrap;html=1;fillColor=#f8cecc;strokeColor=#b85450;" vertex="1" parent="1">
          <mxGeometry x="1430" y="580" width="120" height="60" as="geometry" />
        </mxCell>
        <mxCell id="dNbxliVc7xj6Qj0FZMgo-48" style="edgeStyle=none;rounded=0;orthogonalLoop=1;jettySize=auto;html=1;entryX=0.75;entryY=1;entryDx=0;entryDy=0;exitX=0;exitY=0.25;exitDx=0;exitDy=0;" edge="1" parent="1" source="dNbxliVc7xj6Qj0FZMgo-46" target="dNbxliVc7xj6Qj0FZMgo-42">
          <mxGeometry relative="1" as="geometry" />
        </mxCell>
        <mxCell id="dNbxliVc7xj6Qj0FZMgo-46" value="Aplikasi buatan Evermos" style="rounded=0;whiteSpace=wrap;html=1;fillColor=#008a00;strokeColor=#005700;fontColor=#ffffff;" vertex="1" parent="1">
          <mxGeometry x="1430" y="870" width="120" height="60" as="geometry" />
        </mxCell>
        <mxCell id="dNbxliVc7xj6Qj0FZMgo-51" style="edgeStyle=none;rounded=0;orthogonalLoop=1;jettySize=auto;html=1;exitX=0;exitY=0.25;exitDx=0;exitDy=0;entryX=0.5;entryY=1;entryDx=0;entryDy=0;" edge="1" parent="1" source="dNbxliVc7xj6Qj0FZMgo-49" target="dNbxliVc7xj6Qj0FZMgo-42">
          <mxGeometry relative="1" as="geometry">
            <mxPoint x="970" y="650" as="targetPoint" />
          </mxGeometry>
        </mxCell>
        <mxCell id="dNbxliVc7xj6Qj0FZMgo-49" value="Figma" style="rounded=0;whiteSpace=wrap;html=1;fillColor=#fa6800;strokeColor=#C73500;fontColor=#000000;" vertex="1" parent="1">
          <mxGeometry x="1430" y="1150" width="120" height="60" as="geometry" />
        </mxCell>
        <mxCell id="dNbxliVc7xj6Qj0FZMgo-53" value="Google Docs" style="rounded=0;whiteSpace=wrap;html=1;fillColor=#f8cecc;strokeColor=#b85450;" vertex="1" parent="1">
          <mxGeometry x="910" y="940" width="120" height="60" as="geometry" />
        </mxCell>
        <mxCell id="dNbxliVc7xj6Qj0FZMgo-55" style="edgeStyle=none;rounded=0;orthogonalLoop=1;jettySize=auto;html=1;entryX=0.25;entryY=0;entryDx=0;entryDy=0;exitX=0.25;exitY=1;exitDx=0;exitDy=0;" edge="1" parent="1" source="dNbxliVc7xj6Qj0FZMgo-42" target="dNbxliVc7xj6Qj0FZMgo-53">
          <mxGeometry relative="1" as="geometry" />
        </mxCell>
        <mxCell id="dNbxliVc7xj6Qj0FZMgo-62" value="" style="edgeStyle=none;rounded=0;orthogonalLoop=1;jettySize=auto;html=1;" edge="1" parent="1" source="dNbxliVc7xj6Qj0FZMgo-60" target="dNbxliVc7xj6Qj0FZMgo-61">
          <mxGeometry relative="1" as="geometry" />
        </mxCell>
        <mxCell id="dNbxliVc7xj6Qj0FZMgo-65" style="edgeStyle=none;rounded=0;orthogonalLoop=1;jettySize=auto;html=1;entryX=0;entryY=0;entryDx=0;entryDy=0;exitX=1;exitY=1;exitDx=0;exitDy=0;" edge="1" parent="1" source="dNbxliVc7xj6Qj0FZMgo-60" target="dNbxliVc7xj6Qj0FZMgo-63">
          <mxGeometry relative="1" as="geometry">
            <mxPoint x="1860" y="100" as="sourcePoint" />
          </mxGeometry>
        </mxCell>
        <mxCell id="dNbxliVc7xj6Qj0FZMgo-60" value="Aplikasi buatan Evermos" style="rounded=0;whiteSpace=wrap;html=1;fillColor=#008a00;strokeColor=#005700;fontColor=#ffffff;" vertex="1" parent="1">
          <mxGeometry x="1740" y="50" width="120" height="60" as="geometry" />
        </mxCell>
        <mxCell id="dNbxliVc7xj6Qj0FZMgo-64" style="edgeStyle=none;rounded=0;orthogonalLoop=1;jettySize=auto;html=1;entryX=1;entryY=0.75;entryDx=0;entryDy=0;exitX=0;exitY=0.75;exitDx=0;exitDy=0;" edge="1" parent="1" source="dNbxliVc7xj6Qj0FZMgo-61" target="dNbxliVc7xj6Qj0FZMgo-60">
          <mxGeometry relative="1" as="geometry" />
        </mxCell>
        <mxCell id="dNbxliVc7xj6Qj0FZMgo-61" value="Google Sheet" style="whiteSpace=wrap;html=1;fillColor=#f8cecc;strokeColor=#b85450;rounded=0;" vertex="1" parent="1">
          <mxGeometry x="2280" y="50" width="120" height="60" as="geometry" />
        </mxCell>
        <mxCell id="dNbxliVc7xj6Qj0FZMgo-66" style="edgeStyle=none;rounded=0;orthogonalLoop=1;jettySize=auto;html=1;entryX=0.75;entryY=1;entryDx=0;entryDy=0;exitX=0;exitY=0.25;exitDx=0;exitDy=0;" edge="1" parent="1" source="dNbxliVc7xj6Qj0FZMgo-63" target="dNbxliVc7xj6Qj0FZMgo-60">
          <mxGeometry relative="1" as="geometry" />
        </mxCell>
        <mxCell id="dNbxliVc7xj6Qj0FZMgo-63" value="Google Docs" style="whiteSpace=wrap;html=1;fillColor=#f8cecc;strokeColor=#b85450;rounded=0;" vertex="1" parent="1">
          <mxGeometry x="2280" y="340" width="120" height="60" as="geometry" />
        </mxCell>
        <mxCell id="dNbxliVc7xj6Qj0FZMgo-69" value="" style="edgeStyle=none;rounded=0;orthogonalLoop=1;jettySize=auto;html=1;" edge="1" parent="1" source="dNbxliVc7xj6Qj0FZMgo-67" target="dNbxliVc7xj6Qj0FZMgo-68">
          <mxGeometry relative="1" as="geometry" />
        </mxCell>
        <mxCell id="dNbxliVc7xj6Qj0FZMgo-73" style="edgeStyle=none;rounded=0;orthogonalLoop=1;jettySize=auto;html=1;entryX=0;entryY=0;entryDx=0;entryDy=0;" edge="1" parent="1" source="dNbxliVc7xj6Qj0FZMgo-67" target="dNbxliVc7xj6Qj0FZMgo-70">
          <mxGeometry relative="1" as="geometry" />
        </mxCell>
        <mxCell id="dNbxliVc7xj6Qj0FZMgo-75" style="edgeStyle=none;rounded=0;orthogonalLoop=1;jettySize=auto;html=1;" edge="1" parent="1" source="dNbxliVc7xj6Qj0FZMgo-67" target="dNbxliVc7xj6Qj0FZMgo-74">
          <mxGeometry relative="1" as="geometry" />
        </mxCell>
        <mxCell id="dNbxliVc7xj6Qj0FZMgo-83" style="edgeStyle=none;rounded=0;orthogonalLoop=1;jettySize=auto;html=1;entryX=0.25;entryY=1;entryDx=0;entryDy=0;exitX=0.25;exitY=0;exitDx=0;exitDy=0;" edge="1" parent="1" source="dNbxliVc7xj6Qj0FZMgo-67" target="dNbxliVc7xj6Qj0FZMgo-81">
          <mxGeometry relative="1" as="geometry" />
        </mxCell>
        <mxCell id="dNbxliVc7xj6Qj0FZMgo-67" value="ProofHub" style="rounded=0;whiteSpace=wrap;html=1;fillColor=#b1ddf0;strokeColor=#10739e;" vertex="1" parent="1">
          <mxGeometry x="1720" y="580" width="120" height="60" as="geometry" />
        </mxCell>
        <mxCell id="dNbxliVc7xj6Qj0FZMgo-71" style="edgeStyle=none;rounded=0;orthogonalLoop=1;jettySize=auto;html=1;entryX=1;entryY=0.75;entryDx=0;entryDy=0;exitX=0;exitY=0.75;exitDx=0;exitDy=0;" edge="1" parent="1" source="dNbxliVc7xj6Qj0FZMgo-68" target="dNbxliVc7xj6Qj0FZMgo-67">
          <mxGeometry relative="1" as="geometry" />
        </mxCell>
        <mxCell id="dNbxliVc7xj6Qj0FZMgo-68" value="Google Docs" style="whiteSpace=wrap;html=1;fillColor=#f8cecc;strokeColor=#b85450;rounded=0;" vertex="1" parent="1">
          <mxGeometry x="2280" y="580" width="120" height="60" as="geometry" />
        </mxCell>
        <mxCell id="dNbxliVc7xj6Qj0FZMgo-72" style="edgeStyle=none;rounded=0;orthogonalLoop=1;jettySize=auto;html=1;entryX=0.75;entryY=1;entryDx=0;entryDy=0;" edge="1" parent="1" source="dNbxliVc7xj6Qj0FZMgo-70" target="dNbxliVc7xj6Qj0FZMgo-67">
          <mxGeometry relative="1" as="geometry" />
        </mxCell>
        <mxCell id="dNbxliVc7xj6Qj0FZMgo-70" value="Aplikasi buatan Evermos" style="whiteSpace=wrap;html=1;fillColor=#008a00;strokeColor=#005700;rounded=0;fontColor=#ffffff;" vertex="1" parent="1">
          <mxGeometry x="2280" y="760" width="120" height="60" as="geometry" />
        </mxCell>
        <mxCell id="dNbxliVc7xj6Qj0FZMgo-76" style="edgeStyle=none;rounded=0;orthogonalLoop=1;jettySize=auto;html=1;entryX=0.25;entryY=1;entryDx=0;entryDy=0;exitX=0.25;exitY=0;exitDx=0;exitDy=0;" edge="1" parent="1" source="dNbxliVc7xj6Qj0FZMgo-74" target="dNbxliVc7xj6Qj0FZMgo-67">
          <mxGeometry relative="1" as="geometry">
            <mxPoint x="1760" y="650" as="targetPoint" />
          </mxGeometry>
        </mxCell>
        <mxCell id="dNbxliVc7xj6Qj0FZMgo-74" value="Testcase Labs" style="whiteSpace=wrap;html=1;fillColor=#76608a;strokeColor=#432D57;rounded=0;fontColor=#ffffff;" vertex="1" parent="1">
          <mxGeometry x="1720" y="900" width="120" height="60" as="geometry" />
        </mxCell>
        <mxCell id="dNbxliVc7xj6Qj0FZMgo-79" value="" style="edgeStyle=none;rounded=0;orthogonalLoop=1;jettySize=auto;html=1;" edge="1" parent="1" source="dNbxliVc7xj6Qj0FZMgo-77" target="dNbxliVc7xj6Qj0FZMgo-78">
          <mxGeometry relative="1" as="geometry" />
        </mxCell>
        <mxCell id="dNbxliVc7xj6Qj0FZMgo-77" value="Testcase Labs" style="whiteSpace=wrap;html=1;fillColor=#76608a;strokeColor=#432D57;rounded=0;fontColor=#ffffff;" vertex="1" parent="1">
          <mxGeometry x="2540" y="50" width="120" height="60" as="geometry" />
        </mxCell>
        <mxCell id="dNbxliVc7xj6Qj0FZMgo-78" value="Aplikasi buatan Evermos" style="whiteSpace=wrap;html=1;fillColor=#008a00;strokeColor=#005700;rounded=0;fontColor=#ffffff;" vertex="1" parent="1">
          <mxGeometry x="3130" y="50" width="120" height="60" as="geometry" />
        </mxCell>
        <mxCell id="dNbxliVc7xj6Qj0FZMgo-85" value="" style="edgeStyle=none;rounded=0;orthogonalLoop=1;jettySize=auto;html=1;" edge="1" parent="1" source="dNbxliVc7xj6Qj0FZMgo-80" target="dNbxliVc7xj6Qj0FZMgo-84">
          <mxGeometry relative="1" as="geometry" />
        </mxCell>
        <mxCell id="dNbxliVc7xj6Qj0FZMgo-80" value="Figma" style="whiteSpace=wrap;html=1;fillColor=#fa6800;strokeColor=#C73500;rounded=0;fontColor=#000000;" vertex="1" parent="1">
          <mxGeometry x="2540" y="340" width="120" height="60" as="geometry" />
        </mxCell>
        <mxCell id="dNbxliVc7xj6Qj0FZMgo-82" style="edgeStyle=none;rounded=0;orthogonalLoop=1;jettySize=auto;html=1;" edge="1" parent="1" source="dNbxliVc7xj6Qj0FZMgo-81" target="dNbxliVc7xj6Qj0FZMgo-67">
          <mxGeometry relative="1" as="geometry" />
        </mxCell>
        <mxCell id="dNbxliVc7xj6Qj0FZMgo-81" value="Figma" style="rounded=0;whiteSpace=wrap;html=1;fillColor=#fa6800;strokeColor=#C73500;fontColor=#000000;" vertex="1" parent="1">
          <mxGeometry x="1720" y="330" width="120" height="60" as="geometry" />
        </mxCell>
        <mxCell id="dNbxliVc7xj6Qj0FZMgo-84" value="Google Docs" style="whiteSpace=wrap;html=1;fillColor=#f8cecc;strokeColor=#b85450;rounded=0;" vertex="1" parent="1">
          <mxGeometry x="3130" y="340" width="120" height="60" as="geometry" />
        </mxCell>
        <mxCell id="dNbxliVc7xj6Qj0FZMgo-86" value="Google Docs" style="whiteSpace=wrap;html=1;fillColor=#f8cecc;strokeColor=#b85450;rounded=0;" vertex="1" parent="1">
          <mxGeometry x="3130" y="600" width="120" height="60" as="geometry" />
        </mxCell>
        <mxCell id="dNbxliVc7xj6Qj0FZMgo-89" value="Gslide" style="rounded=0;whiteSpace=wrap;html=1;fillColor=#008a00;strokeColor=#005700;fontColor=#ffffff;" vertex="1" parent="1">
          <mxGeometry x="150" y="1230" width="120" height="60" as="geometry" />
        </mxCell>
      </root>
    </mxGraphModel>
  </diagram>
</mxfile>
